<svg xmlns="http://www.w3.org/2000/svg" xmlns:xlink="http://www.w3.org/1999/xlink" viewBox="0,0,256,256" width="48px" height="48px" fill-rule="nonzero"><g fill="#ffffff" fill-rule="nonzero" stroke="none" stroke-width="1" stroke-linecap="butt" stroke-linejoin="miter" stroke-miterlimit="10" stroke-dasharray="" stroke-dashoffset="0" font-family="none" font-weight="none" font-size="none" text-anchor="none" style="mix-blend-mode: normal"><g transform="scale(5.33333,5.33333)"><path d="M44,24c0,11.045 -8.955,20 -20,20c-11.045,0 -20,-8.955 -20,-20c0,-11.045 8.955,-20 20,-20c11.045,0 20,8.955 20,20zM38.031,23.7c0,-1.707 -1.381,-3.062 -3.062,-3.062c-0.828,0 -1.581,0.326 -2.134,0.853c-2.016,-1.44 -4.748,-2.389 -7.793,-2.58l1.289,-4.962l3.709,0.952c0.193,1.189 1.217,2.099 2.46,2.099c1.381,0 2.5,-1.119 2.5,-2.5c0,-1.381 -1.119,-2.5 -2.5,-2.5c-0.799,0 -1.502,0.382 -1.959,0.965l-4.718,-1.211c-0.265,-0.067 -0.544,-0.026 -0.774,0.118c-0.231,0.143 -0.395,0.374 -0.452,0.64l-1.607,6.431c-3.037,0.189 -5.763,1.132 -7.773,2.574c-0.552,-0.527 -1.305,-0.853 -2.134,-0.853c-1.707,0 -3.062,1.381 -3.062,3.062c0,1.255 0.753,2.309 1.807,2.786c-0.05,0.301 -0.075,0.602 -0.075,0.929c0,4.718 5.497,8.559 12.274,8.559c6.777,0 12.274,-3.815 12.274,-8.559c0,-0.301 -0.025,-0.627 -0.075,-0.929c1.051,-0.478 1.805,-1.557 1.805,-2.812zM19,28c1.104,0 2,-0.896 2,-2c0,-1.103 -0.896,-2 -2,-2c-1.104,0 -2,0.896 -2,2c0,1.103 0.896,2.022 2,2zM29.219,30.58c-0.226,-0.226 -0.577,-0.226 -0.803,0c-0.929,0.954 -2.961,1.28 -4.392,1.28c-1.43,0 -3.438,-0.326 -4.392,-1.28c-0.226,-0.226 -0.577,-0.226 -0.803,0c-0.226,0.226 -0.226,0.577 0,0.803c1.481,1.481 4.343,1.607 5.196,1.607c0.829,0 3.69,-0.101 5.196,-1.607c0.2,-0.226 0.2,-0.578 -0.002,-0.803zM31,26c0,-1.104 -0.896,-2 -2,-2c-1.104,0 -2,0.896 -2,2c0,1.103 0.896,2 2,2c1.103,0 2,-0.919 2,-2z"></path></g></g></svg>