<?xml version="1.0" encoding="utf-8"?>
<svg xmlns="http://www.w3.org/2000/svg" xmlns:xlink="http://www.w3.org/1999/xlink" version= "1.1" width="1146px" height="818px" viewBox="-213 302 1146 818">
<g id="layer1">
<g style="fill:rgb(174,223,225); fill-opacity:1.0; stroke-linejoin: miter">
<path d="M-213.001,301.17197C-213.22035,301.17197,-213.43071,301.25912,-213.5858,301.4142C-213.74089,301.5693,-213.82803,301.77966,-213.82803,301.999L-213.82703,1120.0C-213.82703,1120.4568,-213.45676,1120.827,-213.0,1120.827L933.001,1120.828C933.22034,1120.828,933.43066,1120.741,933.58575,1120.5858C933.74084,1120.4307,933.828,1120.2203,933.828,1120.001L933.827,302.0C933.827,301.54324,933.4567,301.17297,933.0,301.17297L-213.001,301.17197 Z"/>
</g>
<g style="fill:rgb(36,36,36); fill-opacity:1.0; stroke-linejoin: miter">
</g>
<g style="fill:rgb(0,0,0); fill-opacity:0.40392157; stroke-linejoin: miter">
<path d="M892.3985,1039.1675L887.79456,1039.9099Q855.05963,1042.1531,696.2349,1043.4974Q536.3103,1044.8412,319.59116,1044.5874Q112.76056,1044.233,-11.245834,1042.5104Q-50.978645,1041.9534,-76.70163,1041.2966L-98.32074,1040.6222Q-116.136826,1039.925,-116.33713,1039.168Q-110.92842,1036.8433,31.388618,1035.3003Q173.70613,1033.7566,388.03055,1033.6975Q602.3551,1033.7566,744.6719,1035.2999Q886.98975,1036.843,892.3985,1039.1675 Z"/>
</g>
<g style="fill:rgb(255,255,255); fill-opacity:0.99607843; stroke-linejoin: miter">
<path d="M643.8533,741.1441L575.34973,740.8872L506.84637,740.63104Q506.70758,777.64954,506.5688,814.668Q575.0721,814.9252,643.5759,815.1826Q643.7146,778.16315,643.8533,741.1441 Z"/>
</g>
<g style="fill:rgb(11,11,9); fill-opacity:1.0; stroke-linejoin: miter">
<path d="M707.05304,993.2294L678.565,1021.3884L678.1476,1021.9485Q677.7732,1022.29553,675.8939,1023.0836Q667.57684,1026.3157,666.5486,1026.8153Q664.41095,1027.7466,662.9996,1028.534Q659.3428,1030.5382,660.3601,1031.8562Q661.7433,1033.7266,670.74585,1035.0406Q673.2798,1035.4033,675.77325,1035.632L686.2458,1036.4644Q688.1816,1036.582,689.5757,1036.0718Q691.8603,1035.281,693.7302,1032.3522Q694.6128,1031.3645,699.6388,1020.8259Q700.58594,1019.05383,701.4534,1017.9542Q703.59625,1015.21265,705.8768,1015.2584Q707.54376,1015.25146,708.96826,1016.8197L709.2331,1032.0221L711.2534,1031.9463Q710.8406,1021.3672,711.1042,1017.75464Q711.068,1015.2622,712.7004,1007.38684Q712.9011,1005.84424,712.75793,1004.4675Q712.35706,1000.2616,707.06946,993.2512 Z"/>
</g>
<g style="fill:rgb(255,186,154); fill-opacity:1.0; stroke-linejoin: miter">
<path d="M709.22876,993.81995L689.402,997.1212L688.91986,997.56396Q685.8632,1000.6489,682.5609,1009.53284Q677.86346,1022.36743,678.4922,1025.1146Q678.70654,1026.329,680.24084,1026.2731Q678.98096,1028.839,679.7759,1030.115Q680.3963,1031.1646,682.33276,1031.986Q685.5875,1033.3118,689.01447,1033.2458Q691.4828,1033.148,693.17017,1031.4299Q694.6152,1029.9507,695.6598,1027.2014Q695.88416,1027.0902,699.34595,1015.4132Q700.2048,1012.8462,701.07513,1011.1278Q701.90283,1009.49927,702.95276,1008.0945Q703.3627,1007.3977,707.21564,1003.21155Q707.991,1002.26013,708.43915,1001.20544Q709.50946,998.9591,709.2314,993.8318 Z"/>
</g>
<g style="fill:rgb(11,11,9); fill-opacity:1.0; stroke-linejoin: miter">
<path d="M709.79724,997.7169L681.10913,1026.0729Q681.0258,1026.3431,680.89154,1026.4363Q680.5174,1026.7831,678.6382,1027.571Q670.08466,1030.8993,669.38617,1031.262Q667.1081,1032.2542,665.74365,1033.0215Q662.08673,1035.0254,663.10376,1036.3439Q664.4872,1038.2144,673.4898,1039.5276Q676.0235,1039.8906,678.51733,1040.1195L688.98975,1040.952Q690.92535,1041.0692,692.31964,1040.5591Q694.6042,1039.7682,696.474,1036.8395Q697.35675,1035.8518,702.38275,1025.3132Q703.33,1023.5414,704.1974,1022.4415Q706.34033,1019.7001,708.62054,1019.7457Q710.2874,1019.739,711.7122,1021.3071L711.97675,1036.5094L713.9971,1036.4338Q713.58466,1025.855,713.8481,1022.24194Q713.81195,1019.74976,715.4445,1011.87476Q715.6452,1010.3318,715.5019,1008.95496Q715.1012,1004.74915,709.81354,997.739 Z"/>
</g>
<g style="fill:rgb(0,0,0); fill-opacity:1.0; stroke-linejoin: miter">
<path d="M726.79047,932.90015L695.60187,941.1605L688.44824,997.5322L708.6986,999.30664L709.2164,999.26306Q717.416,981.26355,720.5079,969.1045Q724.0565,955.7694,726.7858,932.95593 Z"/>
</g>
<g style="fill:rgb(0,0,0); fill-opacity:1.0; stroke-linejoin: miter">
<path d="M641.2265,651.54926Q631.57056,651.9354,624.61694,656.7817Q618.9565,660.6444,617.6677,668.5633Q615.8156,680.7703,620.39154,705.53925Q623.57306,722.0193,628.89087,724.2929L665.1214,718.9581Q669.7689,714.8315,670.3281,710.8204Q670.937,707.47144,669.4337,701.7952Q668.808,699.3858,667.82764,696.5419Q666.9262,693.83514,664.24036,687.2266Q663.6904,685.711,663.4946,684.59656Q663.252,683.36145,663.2067,681.53796Q663.50745,671.6043,663.1171,669.0721Q662.6402,664.5159,661.2012,661.62714Q655.6679,651.6729,641.24084,651.54913 Z"/>
</g>
<g style="fill:rgb(0,0,0); fill-opacity:1.0; stroke-linejoin: miter">
<path d="M711.25256,775.989L693.3727,791.87054Q674.3492,793.40204,677.1073,827.5228Q678.3328,857.3739,684.3452,889.0012L691.5076,917.7124L696.7839,971.4769Q708.6946,947.4203,710.51215,984.8822Q728.98645,938.7772,734.20935,897.3138Q747.20557,861.0848,743.51196,831.83954Q733.46277,788.1557,711.5579,776.10144 Z"/>
</g>
<g style="fill:rgb(255,255,255); fill-opacity:1.0; stroke-linejoin: miter">
<path d="M704.368,767.38226L668.8576,791.2577L678.23505,804.1145Q689.4183,801.2218,696.1141,796.29803Q702.55756,791.90594,715.5927,777.4591L704.3715,767.38556 Z"/>
</g>
<g style="fill:rgb(255,255,255); fill-opacity:1.0; stroke-linejoin: miter">
<path d="M659.218,699.9428L632.84174,714.1496Q638.2011,717.42566,636.45435,719.3306Q635.86646,720.2387,633.8525,721.41925L624.4265,726.42737Q623.3663,726.8343,622.7429,729.43335Q622.29156,730.05225,621.0135,730.7723Q618.68787,733.3315,558.67426,748.7722Q557.9119,753.273,558.8347,755.90314Q560.4006,760.9095,570.6664,760.70276Q575.04974,760.67926,582.65454,759.7677L614.544,755.4088Q622.83014,754.60956,631.1735,755.12744L624.332,761.2152Q628.02985,767.49615,633.4186,773.00525Q643.04803,782.64404,660.8999,794.71857Q670.8046,801.0244,673.9562,798.75256Q676.5579,797.6931,678.3642,789.37994Q695.3293,779.1593,700.0758,775.1243Q705.47156,770.75824,704.8482,767.4124Q704.63696,766.13727,703.74915,764.6176L698.45776,756.3093Q697.08405,753.678,696.27826,751.05884Q695.3384,747.9915,694.9779,744.91766Q694.2986,731.4226,693.73175,729.9492Q692.86523,725.289,690.4991,721.73364Q687.22034,716.88696,679.3728,712.5408Q668.17334,706.71924,661.1189,705.3554L659.26404,700.0741 Z"/>
</g>
<g style="fill:rgb(255,186,154); fill-opacity:1.0; stroke-linejoin: miter">
<path d="M639.3992,659.81464Q631.04834,660.05566,625.18097,667.02277Q624.00684,668.72186,623.595,670.93115Q623.43085,671.7813,623.34015,672.94257Q623.1988,679.09314,623.0058,678.80396Q622.8638,679.30145,622.57806,679.6102Q621.3308,680.5465,621.2014,680.84094Q620.9045,681.2387,620.7037,682.07794Q620.2657,684.3294,620.58435,687.80817Q620.9274,691.15393,621.73914,692.3361Q622.0637,692.80035,622.4643,693.02734L624.43494,693.7225Q624.9607,693.9982,625.25464,694.4041Q625.4308,694.14667,628.1284,700.58344Q628.7706,701.8753,629.5278,702.995Q631.20123,705.6042,636.0154,710.5297L646.17584,730.1116Q652.48175,721.45886,654.5691,715.22205Q656.0903,710.62573,656.2333,705.8506Q656.29065,703.47205,656.02313,701.8868Q655.7872,700.38696,655.0168,699.39185Q654.9722,699.1709,655.05194,698.87024Q656.4049,695.8128,656.39996,693.65344Q659.5225,694.0033,660.947,690.38885Q662.8876,685.2043,662.68054,680.97797Q662.5288,677.96436,658.94476,678.0642Q658.254,667.64026,654.32465,664.5397Q648.81903,659.9715,639.4263,659.8141 Z"/>
</g>
<g style="fill:rgb(0,0,0); fill-opacity:0.3137255; stroke-linejoin: miter">
<path d="M653.8737,700.92664Q647.00104,710.0546,643.9722,711.4034Q642.21356,712.30664,640.4152,711.9872Q638.8305,711.7642,636.0458,710.0921L645.43445,719.65784L653.8684,700.9418 Z"/>
</g>
<g style="fill:rgb(0,0,0); fill-opacity:1.0; stroke-linejoin: miter">
<path d="M635.16235,715.99L625.2269,720.57623Q628.61505,728.62317,631.0195,731.5035Q632.43866,733.29065,634.0552,734.3159Q634.8622,734.84064,635.8382,735.3183L639.9173,737.2045Q641.0183,737.79846,641.6467,738.4123Q643.29224,739.9593,643.54395,743.5206Q644.3188,730.10925,642.6912,725.7097Q641.1351,720.1757,635.1933,716.0123 M643.5427,743.5459Q643.48895,744.6485,643.5109,744.8051Q643.5496,744.8813,643.561,744.41534Q643.571,744.0426,643.5448,743.55524 Z"/>
</g>
<g style="fill:rgb(0,0,0); fill-opacity:0.12941177; stroke-linejoin: miter">
<path d="M666.37054,741.3065L661.205,768.8892L661.3245,772.856L661.3245,772.8563L655.81866,769.4709L634.96686,757.3064L634.9387,757.2901L634.93744,757.29047Q642.56323,766.0601,648.2701,769.47125Q653.39044,772.7149,663.31464,774.31793Q664.20886,757.11444,666.3723,741.30634 Z M688.617,734.32874L678.6768,788.58453L675.3025,799.7942L681.29266,787.8253L688.60913,734.39L688.617,734.32874 Z"/>
</g>
<g style="fill:rgb(0,0,0); fill-opacity:0.14901961; stroke-linejoin: miter">
<path d="M693.1465,816.6459L694.7478,945.6128Q688.4418,891.2257,688.1775,865.4655Q688.01996,852.1964,689.2355,840.6742Q690.22253,830.9352,693.14,816.6795 Z"/>
</g>
<g style="fill:rgb(255,255,255); fill-opacity:1.0; stroke-linejoin: miter">
<path d="M15.488518,539.4291L12.337196,1031.9938L441.6621,1031.9927L444.79712,542.1737L15.488518,539.4291 Z"/>
</g>
<g style="fill:rgb(255,255,255); fill-opacity:1.0; stroke-linejoin: miter">
<path d="M318.18472,554.61053L38.21747,552.82104C32.404114,552.7821,27.613426,557.50653,27.576149,563.32184C27.539001,569.1351,32.26886,573.926,38.082214,573.9633L318.05124,575.75604C323.87,575.7915,328.6609,571.0672,328.6981,565.2482C328.73346,559.4347,324.00354,554.6477,318.18472,554.61053 Z"/>
</g>
<g style="fill:rgb(255,255,255); fill-opacity:1.0; stroke-linejoin: miter">
<path d="M354.37772,556.37994C359.36234,556.41187,363.3821,560.48157,363.35025,565.4734C363.3182,570.4582,359.24854,574.4782,354.26215,574.44617C349.26837,574.41437,345.25226,570.34436,345.284,565.3578C345.31586,560.3713,349.3857,556.34814,354.37772,556.37994 Z"/>
</g>
<g style="fill:rgb(255,255,255); fill-opacity:1.0; stroke-linejoin: miter">
<path d="M388.1739,556.5961C393.1623,556.62805,397.17828,560.6979,397.14627,565.6897C397.1144,570.6744,393.0448,574.69415,388.05844,574.66235C383.07013,574.63055,379.05386,570.56055,379.08575,565.5741C379.1176,560.58765,383.18558,556.56433,388.1739,556.5961 Z"/>
</g>
<g style="fill:rgb(255,255,255); fill-opacity:1.0; stroke-linejoin: miter">
<path d="M421.97205,556.8123C426.9602,556.84424,430.97635,560.91406,430.9446,565.9059C430.91263,570.8908,426.84293,574.9106,421.8565,574.87866C416.86823,574.8466,412.85193,570.77673,412.88394,565.7903C412.91586,560.80383,416.98544,556.78064,421.97205,556.8123 Z"/>
</g>
<g style="fill:rgb(236,240,241); fill-opacity:1.0; stroke-linejoin: miter">
<path d="M41.919518,615.62024L226.26413,616.80145L224.87247,834.32764L40.527855,833.1504L41.919518,615.62024 Z"/>
</g>
<g style="fill:rgb(236,240,241); fill-opacity:1.0; stroke-linejoin: miter">
<path d="M249.00351,616.9632L248.94888,625.4978L407.48535,626.50995L407.5398,617.9774L249.00351,616.9632 Z"/>
</g>
<g style="fill:rgb(236,240,241); fill-opacity:1.0; stroke-linejoin: miter">
<path d="M248.77756,652.29395L248.72287,660.8268L407.25928,661.83905L407.3139,653.3062L248.77756,652.29395 Z"/>
</g>
<g style="fill:rgb(236,240,241); fill-opacity:1.0; stroke-linejoin: miter">
<path d="M248.55142,687.6209L248.49695,696.1556L375.67227,696.9674L375.72702,688.4346L248.55142,687.6209 Z"/>
</g>
<g style="fill:rgb(236,240,241); fill-opacity:1.0; stroke-linejoin: miter">
<path d="M248.3255,722.95L248.27087,731.4846L406.80716,732.49677L406.8618,723.96423L248.3255,722.95 Z"/>
</g>
<g style="fill:rgb(236,240,241); fill-opacity:1.0; stroke-linejoin: miter">
<path d="M248.09952,758.277L248.04483,766.81165L406.5812,767.82404L406.63583,759.2909L248.09952,758.277 Z"/>
</g>
<g style="fill:rgb(236,240,241); fill-opacity:1.0; stroke-linejoin: miter">
<path d="M247.8735,793.60956L247.84619,797.87494L247.81891,802.14044Q292.35892,802.4244,336.899,802.7085L336.95343,794.1813Q292.41354,793.8952,247.8735,793.60956 Z"/>
</g>
<g style="fill:rgb(236,240,241); fill-opacity:1.0; stroke-linejoin: miter">
<path d="M40.38021,856.20337L40.325546,864.7378L363.52496,866.8032L363.57962,858.2707L40.38021,856.20337 Z"/>
</g>
<g style="fill:rgb(236,240,241); fill-opacity:1.0; stroke-linejoin: miter">
<path d="M40.154152,891.53204L40.09961,900.0667L363.29892,902.1323L363.35355,893.5995L40.154152,891.53204 Z"/>
</g>
<g style="fill:rgb(236,240,241); fill-opacity:1.0; stroke-linejoin: miter">
<path d="M39.928284,926.86115L39.873672,935.3955L299.14053,937.0521L299.19516,928.5193L39.928284,926.86115 Z"/>
</g>
<g style="fill:rgb(236,240,241); fill-opacity:1.0; stroke-linejoin: miter">
<path d="M39.70217,962.1902L39.64756,970.7246L362.84692,972.79004L362.90155,964.2572L39.70217,962.1902 Z"/>
</g>
<g style="fill:rgb(236,240,241); fill-opacity:1.0; stroke-linejoin: miter">
<path d="M39.47616,997.5187L39.421555,1006.0532L362.62088,1008.1185L362.67548,999.58606L39.47616,997.5187 Z"/>
</g>
<g style="fill:rgb(236,240,241); fill-opacity:1.0; stroke-linejoin: miter">
<path d="M248.77756,652.29224L248.77756,652.29297L248.77747,652.29395Q248.77756,652.29425,248.77756,652.2948L248.77756,652.29395Q248.77756,652.29297,248.77756,652.29224 Z"/>
</g>
<g style="fill:rgb(21,75,111); fill-opacity:1.0; stroke-linejoin: miter">
<path d="M14.421455,530.93713L229.46368,530.93744L444.5059,530.93787Q444.5059,553.5242,444.5059,576.1106Q229.46368,576.1108,14.421455,576.1112Q14.421455,553.5242,14.421455,530.93713 Z"/>
</g>
<g style="fill:rgb(255,255,255); fill-opacity:1.0; stroke-linejoin: miter">
<path d="M21.861042,539.1925L199.35507,539.1926L376.84918,539.19293Q376.84918,552.3503,376.84918,565.5077Q199.35507,565.5081,21.861042,565.5084Q21.861042,552.3503,21.861042,539.1925 Z"/>
</g>
<g style="fill:rgb(255,255,255); fill-opacity:1.0; stroke-linejoin: miter">
<path d="M383.9246,541.9063L401.1296,541.9066L418.3347,541.90674Q418.3347,552.3503,418.3347,562.794Q401.1296,562.7943,383.9246,562.7943Q383.9246,552.3503,383.9246,541.9063 Z"/>
</g>
<g style="fill:rgb(0,0,0); fill-opacity:1.0; stroke-linejoin: miter">
<path d="M248.50436,692.3601L248.50452,692.3603L248.50467,692.3614L248.50452,692.3603L248.50436,692.3601L248.50452,692.3603L248.50467,692.3614Q248.50452,692.3603,248.50436,692.3601 Z"/>
</g>
<g style="fill:rgb(0,0,0); fill-opacity:1.0; stroke-linejoin: miter">
<path d="M248.50436,692.3601L248.50452,692.3603L248.50467,692.3614L248.50452,692.3603L248.50436,692.3601L248.50452,692.3603L248.50467,692.3614Q248.50452,692.3603,248.50436,692.3601 Z"/>
</g>
<g style="fill:rgb(0,0,0); fill-opacity:1.0; stroke-linejoin: miter">
<path d="M287.8966,714.7715L287.8968,714.7717L287.89697,714.77203L287.8968,714.7717L287.8966,714.7715L287.8968,714.7717L287.89697,714.77203Q287.8968,714.7717,287.8966,714.7715 Z"/>
</g>
<g style="fill:rgb(255,0,0); fill-opacity:1.0; stroke-linejoin: miter">
<path d="M184.60175,563.9485L184.60188,563.9486L184.60196,563.9497L184.60188,563.9486L184.60175,563.9485L184.60188,563.9486L184.60196,563.9497Q184.60188,563.9486,184.60175,563.9485 Z"/>
</g>
<g style="fill:rgb(255,255,255); fill-opacity:1.0; stroke-linejoin: miter">
<path d="M493.8689,740.1209L568.8739,740.12146L643.87885,740.1221Q643.87885,836.2228,643.87885,932.3235Q568.8739,932.3241,493.8689,932.3247Q493.8689,836.2228,493.8689,740.1209"/>
</g>
<g style="fill:rgb(255,186,154); fill-opacity:1.0; stroke-linejoin: miter">
<path d="M618.62964,731.7431Q616.0584,731.8101,613.6876,733.0874Q611.22455,734.4761,610.2621,736.2988Q609.6055,737.5308,609.60284,739.6307Q609.5703,747.104,610.0363,748.5777Q610.4601,750.582,611.6591,750.31946Q612.19403,750.2107,612.8527,749.7866Q613.20306,749.63544,615.74316,747.509Q616.2013,747.1862,616.3771,747.31793Q616.5127,747.3908,616.5695,747.8131Q616.6823,750.24097,616.83435,751.026Q616.99146,752.02386,617.2816,753.0917Q618.0008,755.70886,619.1745,757.5619Q621.02264,760.60425,625.3337,761.2412L631.41235,756.2308Q630.63,754.30334,630.22186,752.2141Q630.0746,751.82275,629.02734,744.66895Q628.76105,743.0852,628.459,741.74725Q627.25037,736.32916,625.0696,734.25256Q622.5677,731.71875,618.6525,731.7427 Z"/>
</g>
<g style="fill:rgb(255,186,154); fill-opacity:1.0; stroke-linejoin: miter">
<path d="M563.22626,739.7111Q561.3434,736.88837,558.67944,736.38336Q556.3742,736.03125,554.3512,738.3555Q551.4928,741.6935,550.2036,746.7886Q549.2082,750.8945,550.84076,753.5313Q552.1119,755.7506,556.3157,758.1814Q558.241,758.8864,559.9726,757.0763Q561.5183,755.2747,561.4961,752.8884Q561.46106,751.99475,561.17993,751.27277Q561.04376,750.91547,560.84784,750.58356Q559.9835,749.3492,559.87555,749.0742Q559.6222,748.5612,559.6944,748.2034Q559.75305,747.88617,560.11096,747.64636L562.0255,746.7262Q562.4799,746.4522,562.57477,746.1969Q562.66235,746.0064,562.6231,745.6967Q562.67786,745.73376,562.2289,744.3255Q562.15564,743.97327,562.2172,743.7317Q562.265,743.52527,562.44,743.31683Q563.42017,742.3901,563.4853,742.2261Q563.7181,741.901,563.7707,741.469Q563.8438,740.7243,563.24384,739.7399 Z"/>
</g>
<g style="fill:rgb(255,186,154); fill-opacity:1.0; stroke-linejoin: miter">
<path d="M613.8662,733.3062Q612.7653,733.3107,612.184,733.8839Q611.28217,734.6506,609.8809,736.6321Q607.37225,740.2904,607.2302,742.85223Q607.106,744.9159,608.7316,747.15857Q609.60846,748.3918,611.4221,750.2575Q612.1893,750.9454,613.01105,750.9339Q614.6927,750.8432,616.05444,747.9423Q617.447,744.8219,617.6755,740.87164Q617.8303,737.3066,616.81396,735.2526Q615.80145,733.2708,613.87244,733.30597 Z"/>
</g>
<g style="fill:rgb(217,226,231); fill-opacity:1.0; stroke-linejoin: miter">
<path d="M504.82928,771.707L569.4062,771.7075L633.9831,771.70807Q633.9831,845.36066,633.9831,919.01337Q569.4062,919.0139,504.82928,919.01447Q504.82928,845.36066,504.82928,771.707"/>
</g>
<g>
<g style="fill:rgb(255,255,255); fill-opacity:1.0; stroke-linejoin: miter">
<path d="M545.12463,822.9102L548.9495,845.8596L541.1036,845.8596L544.92847,822.9102 Z M600.5367,815.9469Q601.81165,815.9469,602.6943,816.8296Q603.57697,817.7122,603.57697,819.0853L603.57697,853.70557Q603.57697,854.9805,602.6943,855.8632Q601.81165,856.7459,600.5367,856.7459L593.67145,856.7459L593.67145,815.9469 Z M535.7095,800.255L536.59216,801.13763L518.7426,871.6532L517.6638,872.5358L535.90564,872.5358L535.02295,871.6532L537.76904,860.6688L552.38214,860.6688L555.22626,871.6532L554.2455,872.5358L572.38934,872.5358L571.50665,871.6532L553.36285,801.13763L554.3436,800.255 Z M576.99884,800.157L577.8815,801.0396L577.8815,871.6532L576.99884,872.5358L600.5367,872.5358Q604.45966,872.5358,607.8922,871.35895Q611.3249,870.28015,613.8748,867.9264Q616.42474,865.67065,617.8959,862.13995Q619.367,858.6093,619.367,853.70557L619.367,819.0853Q619.367,814.47577,617.8959,810.9451Q616.42474,807.4144,613.8748,804.9626Q611.3249,802.60876,607.8922,801.33386Q604.45966,800.157,600.5367,800.157 Z"/>
</g>
</g>
</g>
</svg>